# Blender v2.91.2 OBJ File: 'Piece1.blend'
# www.blender.org
mtllib Piece1.mtl
o Pièce1
v -1.540868 -0.413974 0.206983
v -1.540868 0.000000 0.206983
v -1.538320 -0.032380 0.206983
v -1.366261 0.204439 0.206983
v -1.397844 0.196856 0.206983
v -1.540868 0.413974 0.206983
v -1.427852 0.184427 0.206983
v -1.455545 0.167456 0.206983
v -1.501337 -0.121664 0.206983
v -1.480243 -0.146362 0.206983
v 2.184896 -0.206987 0.206984
v 2.246595 -0.202363 0.206984
v 2.257365 -0.393712 0.206984
v -1.530738 -0.063962 0.206983
v -1.518308 -0.093970 0.206983
v 2.543407 0.000000 0.206984
v 3.005265 0.048657 0.206984
v 3.009473 0.032480 0.206984
v -1.480243 0.146362 0.206983
v -1.501337 0.121664 0.206983
v -1.518308 0.093970 0.206983
v -1.530738 0.063962 0.206983
v -1.538320 0.032380 0.206983
v -1.455545 -0.167456 0.206983
v -1.427852 -0.184427 0.206983
v -1.397844 -0.196856 0.206983
v 2.415870 -0.368853 0.206984
v 2.508554 0.051122 0.206984
v 2.804034 0.243328 0.206984
v 2.893676 0.187940 0.206984
v 2.929618 0.158421 0.206984
v 2.959331 0.127925 0.206984
v 3.012000 0.016253 0.206984
v 3.012843 0.000000 0.206984
v 3.012000 -0.016253 0.206984
v 3.009473 -0.032480 0.206984
v 3.005265 -0.048657 0.206984
v 2.999382 -0.064760 0.206984
v 2.257365 0.393712 0.206984
v 2.415870 0.368853 0.206984
v 2.306917 0.188595 0.206984
v -1.366261 -0.204439 0.206983
v -1.333881 -0.206987 0.206983
v 1.919505 -0.413974 0.206984
v 2.090541 -0.408877 0.206984
v 2.306917 -0.188595 0.206984
v 2.364512 -0.165991 0.206984
v 2.562153 -0.334912 0.206984
v 2.418095 -0.135054 0.206984
v 2.692612 -0.292724 0.206984
v 2.466470 -0.096477 0.206984
v 2.804034 -0.243328 0.206984
v 2.508554 -0.051122 0.206984
v 2.893676 -0.187940 0.206984
v 2.929618 -0.158421 0.206984
v 2.982634 -0.096640 0.206984
v 2.959331 -0.127925 0.206984
v 2.982634 0.096640 0.206984
v 2.999382 0.064760 0.206984
v 2.692612 0.292724 0.206984
v 2.466470 0.096477 0.206984
v 2.562153 0.334912 0.206984
v 2.418095 0.135054 0.206984
v 2.364512 0.165991 0.206984
v 1.919505 0.413974 0.206984
v 2.184896 0.206987 0.206984
v -1.333881 0.206987 0.206983
v 2.246595 0.202363 0.206984
v 2.090541 0.408877 0.206984
v -2.763065 0.408877 2.192549
v -2.705500 0.413974 2.099030
v -3.019252 0.216301 2.608748
v -3.033370 0.187940 2.631684
v -3.073477 0.000000 2.696841
v -2.763065 -0.408877 2.192549
v -3.019252 -0.216301 2.608748
v -2.705500 -0.413974 2.099030
v -3.033370 -0.187940 2.631684
v -3.045467 -0.158421 2.651336
v -3.063310 0.096640 2.680324
v -3.055467 0.127925 2.667583
v -3.045467 0.158421 2.651336
v -2.965699 0.292724 2.521747
v -2.921792 0.334912 2.450415
v -3.003200 0.243328 2.582670
v -2.872559 0.368853 2.370431
v -2.819211 0.393712 2.283764
v -2.819211 -0.393712 2.283764
v -2.872559 -0.368853 2.370431
v -3.003200 -0.243328 2.582670
v -2.921792 -0.334912 2.450415
v -2.965699 -0.292724 2.521747
v -3.055467 -0.127925 2.667583
v -3.063310 -0.096640 2.680324
v -3.068947 -0.064760 2.689481
v -3.072343 0.032480 2.694998
v -3.068947 0.064760 2.689481
v -3.072343 -0.032480 2.694998
v -1.333881 0.206987 -0.206991
v 2.184896 0.206987 -0.206990
v -1.333881 -0.206987 -0.206991
v 2.184896 -0.206987 -0.206990
v -1.397844 0.196856 -0.206991
v -1.540868 0.413974 -0.206991
v -1.427852 0.184427 -0.206991
v -1.455545 0.167456 -0.206991
v -1.366261 -0.204439 -0.206991
v -1.397844 -0.196856 -0.206991
v -1.540868 -0.413974 -0.206991
v -1.427852 -0.184427 -0.206991
v -1.455545 -0.167456 -0.206991
v -1.540868 0.000000 -0.206991
v -1.538320 0.032380 -0.206991
v -1.530738 0.063962 -0.206991
v -1.518308 0.093970 -0.206991
v 2.246595 0.202363 -0.206990
v 2.257365 0.393712 -0.206990
v 2.543407 0.000000 -0.206990
v 3.005265 -0.048657 -0.206990
v 3.009473 -0.032480 -0.206990
v -1.480243 -0.146362 -0.206991
v -1.501337 -0.121664 -0.206991
v -1.518308 -0.093970 -0.206991
v -1.501337 0.121664 -0.206991
v -1.480243 0.146362 -0.206991
v 2.415870 0.368853 -0.206990
v 2.508554 -0.051122 -0.206990
v 2.804034 -0.243328 -0.206990
v 2.893676 -0.187940 -0.206990
v 2.929618 -0.158421 -0.206990
v 2.959331 -0.127925 -0.206990
v 3.012000 -0.016253 -0.206990
v 3.012843 0.000000 -0.206990
v 3.012000 0.016253 -0.206990
v -1.530738 -0.063962 -0.206991
v -1.538320 -0.032380 -0.206991
v 3.009473 0.032480 -0.206990
v 3.005265 0.048657 -0.206990
v 2.999382 0.064760 -0.206990
v 2.257365 -0.393712 -0.206990
v 2.415870 -0.368853 -0.206990
v 2.306917 -0.188595 -0.206990
v 2.306917 0.188595 -0.206990
v 2.364512 0.165991 -0.206990
v 2.562153 0.334912 -0.206990
v 2.418095 0.135054 -0.206990
v 2.692612 0.292724 -0.206990
v 2.466470 0.096477 -0.206990
v 2.804034 0.243328 -0.206990
v 2.508554 0.051122 -0.206990
v 2.893676 0.187940 -0.206990
v 2.929618 0.158421 -0.206990
v 2.982634 0.096640 -0.206990
v 2.959331 0.127925 -0.206990
v 2.982634 -0.096640 -0.206990
v 2.999382 -0.064760 -0.206990
v 2.692612 -0.292724 -0.206990
v 2.466470 -0.096477 -0.206990
v 2.562153 -0.334912 -0.206990
v 2.418095 -0.135054 -0.206990
v 2.364512 -0.165991 -0.206990
v 1.919505 -0.413974 -0.206990
v 2.246595 -0.202363 -0.206990
v 2.090541 -0.408877 -0.206990
v -1.366261 0.204439 -0.206991
v 1.919505 0.413974 -0.206990
v 2.090541 0.408877 -0.206990
v -2.763064 -0.408877 -2.192557
v -2.705500 -0.413974 -2.099038
v -3.019252 -0.216301 -2.608756
v -3.033370 -0.187940 -2.631691
v -3.073477 0.000000 -2.696849
v -2.763064 0.408877 -2.192557
v -3.019252 0.216301 -2.608756
v -2.705500 0.413974 -2.099038
v -3.033370 0.187940 -2.631691
v -3.045466 0.158421 -2.651344
v -3.063310 -0.096640 -2.680331
v -3.055467 -0.127925 -2.667590
v -3.045466 -0.158421 -2.651344
v -2.965699 -0.292724 -2.521754
v -2.921791 -0.334912 -2.450423
v -3.003200 -0.243328 -2.582677
v -2.872558 -0.368853 -2.370439
v -2.819211 -0.393712 -2.283772
v -2.819211 0.393712 -2.283772
v -2.872558 0.368853 -2.370439
v -3.003200 0.243328 -2.582677
v -2.921791 0.334912 -2.450423
v -2.965699 0.292724 -2.521754
v -3.055467 0.127925 -2.667590
v -3.063310 0.096640 -2.680331
v -3.068946 0.064760 -2.689489
v -3.072342 -0.032480 -2.695006
v -3.068946 -0.064760 -2.689489
v -3.072342 0.032480 -2.695006
vn 0.0000 1.0000 0.0000
vn 0.0000 -1.0000 0.0000
vn 0.0747 0.9972 0.0000
vn 0.2225 0.9749 0.0000
vn 0.3653 0.9309 0.0000
vn 0.5000 0.8660 0.0000
vn 0.6235 0.7818 0.0000
vn 0.7330 0.6802 0.0000
vn 0.7331 0.6802 0.0000
vn 0.8262 0.5633 0.0000
vn 0.0747 -0.9972 0.0000
vn 0.2225 -0.9749 0.0000
vn 0.3653 -0.9309 0.0000
vn 0.5000 -0.8660 0.0000
vn 0.6235 -0.7818 0.0000
vn 0.7330 -0.6802 0.0000
vn 0.7331 -0.6802 0.0000
vn 0.8262 -0.5633 0.0000
vn -0.0785 -0.9969 0.0000
vn -0.2334 -0.9724 0.0000
vn -0.3827 -0.9239 0.0000
vn -0.5225 -0.8526 0.0000
vn -0.6494 -0.7604 0.0000
vn -0.7604 -0.6495 0.0000
vn -0.7604 -0.6494 0.0000
vn -0.8526 -0.5225 0.0000
vn -0.9239 -0.3827 0.0000
vn -0.9724 -0.2334 0.0000
vn -0.9724 -0.2335 0.0000
vn -0.9969 -0.0785 0.0000
vn -0.0785 0.9969 0.0000
vn -0.2334 0.9724 0.0000
vn -0.3827 0.9239 0.0000
vn -0.5225 0.8526 0.0000
vn -0.6494 0.7604 0.0000
vn -0.7604 0.6495 0.0000
vn -0.7604 0.6494 0.0000
vn -0.8526 0.5225 0.0000
vn -0.9239 0.3827 0.0000
vn -0.9724 0.2334 0.0000
vn -0.9724 0.2335 0.0000
vn -0.9969 0.0785 0.0000
vn 0.0000 0.0000 -1.0000
vn -0.8516 0.0000 -0.5242
vn -0.8516 -0.0001 -0.5242
vn -0.8516 0.0001 -0.5242
vn 0.0000 0.0000 1.0000
vn -0.8516 0.0000 0.5242
vn 0.3786 0.0196 -0.9254
vn 0.0297 0.9969 -0.0726
vn 0.0884 0.9724 -0.2161
vn 0.1449 0.9239 -0.3542
vn 0.1978 0.8526 -0.4836
vn 0.2459 0.7604 -0.6011
vn 0.2879 0.6494 -0.7038
vn 0.3148 0.5556 -0.7696
vn 0.3230 0.5227 -0.7890
vn 0.3304 0.4886 -0.8075
vn 0.3552 0.3461 -0.8683
vn 0.3439 0.4187 -0.8405
vn 0.3714 0.1951 -0.9078
vn 0.3644 0.2714 -0.8908
vn 0.3760 0.1175 -0.9191
vn 0.3750 0.1370 -0.9169
vn 0.3785 0.0393 -0.9248
vn 0.3765 0.0979 -0.9212
vn 0.3779 0.0589 -0.9240
vn 0.3786 -0.0196 -0.9254
vn 0.3779 -0.0589 -0.9240
vn 0.3765 -0.0979 -0.9212
vn 0.3785 -0.0393 -0.9248
vn 0.3750 -0.1370 -0.9169
vn 0.3153 -0.5553 -0.7696
vn 0.3304 -0.4886 -0.8075
vn 0.3439 -0.4187 -0.8405
vn 0.3552 -0.3461 -0.8683
vn 0.3644 -0.2714 -0.8908
vn 0.3714 -0.1951 -0.9078
vn 0.3760 -0.1175 -0.9191
vn 0.3228 -0.5225 -0.7892
vn 0.2879 -0.6494 -0.7038
vn 0.2459 -0.7604 -0.6011
vn 0.1978 -0.8526 -0.4836
vn 0.1449 -0.9239 -0.3542
vn 0.0884 -0.9724 -0.2161
vn 0.0297 -0.9969 -0.0726
vn 0.3786 0.0196 0.9254
vn 0.3779 0.0589 0.9240
vn 0.3765 0.0979 0.9212
vn 0.3785 0.0393 0.9248
vn 0.3750 0.1370 0.9169
vn 0.3153 0.5553 0.7696
vn 0.3304 0.4886 0.8075
vn 0.3439 0.4187 0.8405
vn 0.3552 0.3461 0.8683
vn 0.3644 0.2714 0.8908
vn 0.3714 0.1951 0.9078
vn 0.3760 0.1175 0.9191
vn 0.3228 0.5225 0.7892
vn 0.2879 0.6494 0.7038
vn 0.2459 0.7604 0.6011
vn 0.1978 0.8526 0.4836
vn 0.1449 0.9239 0.3542
vn 0.0884 0.9724 0.2161
vn 0.0297 0.9969 0.0726
vn 0.3786 -0.0196 0.9254
vn 0.0297 -0.9969 0.0726
vn 0.0884 -0.9724 0.2161
vn 0.1449 -0.9239 0.3542
vn 0.1978 -0.8526 0.4836
vn 0.2459 -0.7604 0.6011
vn 0.2879 -0.6494 0.7038
vn 0.3148 -0.5556 0.7696
vn 0.3230 -0.5227 0.7890
vn 0.3304 -0.4886 0.8075
vn 0.3552 -0.3461 0.8683
vn 0.3439 -0.4187 0.8405
vn 0.3714 -0.1951 0.9078
vn 0.3644 -0.2714 0.8908
vn 0.3760 -0.1175 0.9191
vn 0.3750 -0.1370 0.9169
vn 0.3785 -0.0393 0.9248
vn 0.3765 -0.0979 0.9212
vn 0.3779 -0.0589 0.9240
g Pièce1_Pièce1_Centre
usemtl Centre
s off
f 67//1 66//1 99//1
f 99//1 66//1 100//1
f 101//2 102//2 43//2
f 43//2 102//2 11//2
f 100//3 66//3 68//3
f 100//3 68//3 116//3
f 116//4 68//4 41//4
f 116//4 41//4 143//4
f 143//5 41//5 64//5
f 143//5 64//5 144//5
f 144//6 64//6 63//6
f 144//6 63//6 146//6
f 146//7 63//7 61//7
f 146//7 61//7 148//7
f 148//8 61//8 28//8
f 148//9 28//9 150//9
f 150//10 28//10 16//10
f 150//10 16//10 118//10
f 11//11 102//11 163//11
f 11//11 163//11 12//11
f 12//12 163//12 142//12
f 12//12 142//12 46//12
f 46//13 142//13 161//13
f 46//13 161//13 47//13
f 47//14 161//14 160//14
f 47//14 160//14 49//14
f 49//15 160//15 158//15
f 49//15 158//15 51//15
f 51//16 158//16 127//16
f 51//17 127//17 53//17
f 53//18 127//18 118//18
f 53//18 118//18 16//18
f 101//19 43//19 42//19
f 101//19 42//19 107//19
f 107//20 42//20 26//20
f 107//20 26//20 108//20
f 108//21 26//21 25//21
f 108//21 25//21 110//21
f 110//22 25//22 24//22
f 110//22 24//22 111//22
f 111//23 24//23 10//23
f 111//23 10//23 121//23
f 121//24 10//24 9//24
f 121//25 9//25 122//25
f 122//26 9//26 15//26
f 122//26 15//26 123//26
f 123//27 15//27 14//27
f 123//27 14//27 135//27
f 135//28 14//28 3//28
f 135//29 3//29 136//29
f 136//30 3//30 2//30
f 136//30 2//30 112//30
f 67//31 99//31 165//31
f 67//31 165//31 4//31
f 4//32 165//32 103//32
f 4//32 103//32 5//32
f 5//33 103//33 105//33
f 5//33 105//33 7//33
f 7//34 105//34 106//34
f 7//34 106//34 8//34
f 8//35 106//35 125//35
f 8//35 125//35 19//35
f 19//36 125//36 124//36
f 19//37 124//37 20//37
f 20//38 124//38 115//38
f 20//38 115//38 21//38
f 21//39 115//39 114//39
f 21//39 114//39 22//39
f 22//40 114//40 113//40
f 22//41 113//41 23//41
f 23//42 113//42 112//42
f 23//42 112//42 2//42
g Pièce1_Pièce1_Bord
usemtl Bord
f 1//43 2//43 3//43
f 4//43 5//43 6//43
f 6//43 5//43 7//43
f 6//43 7//43 8//43
f 1//43 9//43 10//43
f 11//43 12//43 13//43
f 3//43 14//43 1//43
f 1//43 14//43 15//43
f 1//43 15//43 9//43
f 16//43 17//43 18//43
f 8//43 19//43 6//43
f 6//43 19//43 20//43
f 6//43 20//43 21//43
f 21//43 22//43 6//43
f 6//43 22//43 23//43
f 6//43 23//43 2//43
f 10//43 24//43 1//43
f 1//43 24//43 25//43
f 1//43 25//43 26//43
f 13//43 12//43 27//43
f 28//43 29//43 30//43
f 28//43 30//43 16//43
f 16//43 30//43 31//43
f 16//43 31//43 32//43
f 18//43 33//43 16//43
f 16//43 33//43 34//43
f 16//43 34//43 35//43
f 35//43 36//43 16//43
f 16//43 36//43 37//43
f 16//43 37//43 38//43
f 39//43 40//43 41//43
f 26//43 42//43 1//43
f 1//43 42//43 43//43
f 1//43 43//43 44//43
f 44//43 43//43 11//43
f 44//43 11//43 45//43
f 45//43 11//43 13//43
f 12//43 46//43 27//43
f 27//43 46//43 47//43
f 27//43 47//43 48//43
f 48//43 47//43 49//43
f 48//43 49//43 50//43
f 50//43 49//43 51//43
f 50//43 51//43 52//43
f 52//43 51//43 53//43
f 52//43 53//43 54//43
f 54//43 53//43 16//43
f 54//43 16//43 55//43
f 38//43 56//43 16//43
f 16//43 56//43 57//43
f 16//43 57//43 55//43
f 32//43 58//43 16//43
f 16//43 58//43 59//43
f 16//43 59//43 17//43
f 29//43 28//43 60//43
f 60//43 28//43 61//43
f 60//43 61//43 62//43
f 62//43 61//43 63//43
f 62//43 63//43 40//43
f 40//43 63//43 64//43
f 40//43 64//43 41//43
f 65//43 66//43 6//43
f 6//43 66//43 67//43
f 6//43 67//43 4//43
f 41//43 68//43 39//43
f 39//43 68//43 66//43
f 39//43 66//43 69//43
f 69//43 66//43 65//43
f 70//44 71//44 72//44
f 72//44 71//44 73//44
f 6//44 2//44 71//44
f 71//44 2//44 74//44
f 75//44 76//44 77//44
f 77//44 76//44 78//44
f 77//44 78//44 79//44
f 80//44 81//44 71//44
f 71//44 81//44 82//44
f 71//44 82//44 73//44
f 83//45 84//45 85//45
f 85//44 84//44 86//44
f 85//44 86//44 72//44
f 72//44 86//44 87//44
f 72//44 87//44 70//44
f 75//44 88//44 76//44
f 76//44 88//44 89//44
f 76//44 89//44 90//44
f 90//44 89//44 91//44
f 90//46 91//46 92//46
f 79//44 93//44 77//44
f 77//44 93//44 94//44
f 77//44 94//44 95//44
f 74//44 96//44 71//44
f 71//44 96//44 97//44
f 71//44 97//44 80//44
f 2//44 1//44 74//44
f 74//44 1//44 77//44
f 74//44 77//44 98//44
f 98//44 77//44 95//44
f 71//1 65//1 6//1
f 44//2 77//2 1//2
f 103//47 104//47 105//47
f 105//47 104//47 106//47
f 107//47 108//47 109//47
f 109//47 108//47 110//47
f 109//47 110//47 111//47
f 112//47 113//47 104//47
f 104//47 113//47 114//47
f 104//47 114//47 115//47
f 100//47 116//47 117//47
f 118//47 119//47 120//47
f 111//47 121//47 109//47
f 109//47 121//47 122//47
f 109//47 122//47 123//47
f 115//47 124//47 104//47
f 104//47 124//47 125//47
f 104//47 125//47 106//47
f 117//47 116//47 126//47
f 127//47 128//47 129//47
f 127//47 129//47 118//47
f 118//47 129//47 130//47
f 118//47 130//47 131//47
f 120//47 132//47 118//47
f 118//47 132//47 133//47
f 118//47 133//47 134//47
f 123//47 135//47 109//47
f 109//47 135//47 136//47
f 109//47 136//47 112//47
f 134//47 137//47 118//47
f 118//47 137//47 138//47
f 118//47 138//47 139//47
f 140//47 141//47 142//47
f 116//47 143//47 126//47
f 126//47 143//47 144//47
f 126//47 144//47 145//47
f 145//47 144//47 146//47
f 145//47 146//47 147//47
f 147//47 146//47 148//47
f 147//47 148//47 149//47
f 149//47 148//47 150//47
f 149//47 150//47 151//47
f 151//47 150//47 118//47
f 151//47 118//47 152//47
f 139//47 153//47 118//47
f 118//47 153//47 154//47
f 118//47 154//47 152//47
f 131//47 155//47 118//47
f 118//47 155//47 156//47
f 118//47 156//47 119//47
f 128//47 127//47 157//47
f 157//47 127//47 158//47
f 157//47 158//47 159//47
f 159//47 158//47 160//47
f 159//47 160//47 141//47
f 141//47 160//47 161//47
f 141//47 161//47 142//47
f 162//47 102//47 109//47
f 109//47 102//47 101//47
f 109//47 101//47 107//47
f 142//47 163//47 140//47
f 140//47 163//47 102//47
f 140//47 102//47 164//47
f 164//47 102//47 162//47
f 103//47 165//47 104//47
f 104//47 165//47 99//47
f 104//47 99//47 166//47
f 166//47 99//47 100//47
f 166//47 100//47 167//47
f 167//47 100//47 117//47
f 168//48 169//48 170//48
f 170//48 169//48 171//48
f 109//48 112//48 169//48
f 169//48 112//48 172//48
f 173//48 174//48 175//48
f 175//48 174//48 176//48
f 175//48 176//48 177//48
f 178//48 179//48 169//48
f 169//48 179//48 180//48
f 169//48 180//48 171//48
f 181//48 182//48 183//48
f 183//48 182//48 184//48
f 183//48 184//48 170//48
f 170//48 184//48 185//48
f 170//48 185//48 168//48
f 173//48 186//48 174//48
f 174//48 186//48 187//48
f 174//48 187//48 188//48
f 188//48 187//48 189//48
f 188//48 189//48 190//48
f 177//48 191//48 175//48
f 175//48 191//48 192//48
f 175//48 192//48 193//48
f 172//48 194//48 169//48
f 169//48 194//48 195//48
f 169//48 195//48 178//48
f 112//48 104//48 172//48
f 172//48 104//48 175//48
f 172//48 175//48 196//48
f 196//48 175//48 193//48
f 166//1 175//1 104//1
f 169//2 162//2 109//2
f 134//49 133//49 172//49
f 175//50 166//50 167//50
f 175//50 167//50 173//50
f 173//51 167//51 117//51
f 173//51 117//51 186//51
f 186//52 117//52 126//52
f 186//52 126//52 187//52
f 187//53 126//53 145//53
f 187//53 145//53 189//53
f 189//54 145//54 147//54
f 189//54 147//54 190//54
f 190//55 147//55 149//55
f 190//55 149//55 188//55
f 188//56 149//56 174//56
f 174//57 149//57 151//57
f 174//58 151//58 176//58
f 154//59 191//59 177//59
f 176//60 151//60 177//60
f 177//60 151//60 152//60
f 177//59 152//59 154//59
f 139//61 193//61 192//61
f 191//62 154//62 192//62
f 192//62 154//62 153//62
f 192//61 153//61 139//61
f 193//63 139//63 196//63
f 196//64 139//64 138//64
f 196//65 138//65 172//65
f 172//66 138//66 137//66
f 172//67 137//67 134//67
f 172//68 133//68 132//68
f 132//69 120//69 172//69
f 172//70 120//70 119//70
f 172//71 119//71 194//71
f 194//72 119//72 156//72
f 183//73 170//73 129//73
f 129//74 170//74 171//74
f 129//75 171//75 130//75
f 130//75 171//75 180//75
f 130//76 180//76 131//76
f 131//76 180//76 179//76
f 131//77 179//77 155//77
f 155//77 179//77 178//77
f 155//78 178//78 156//78
f 156//78 178//78 195//78
f 156//79 195//79 194//79
f 129//80 128//80 183//80
f 183//81 128//81 157//81
f 183//81 157//81 181//81
f 181//82 157//82 159//82
f 181//82 159//82 182//82
f 182//83 159//83 141//83
f 182//83 141//83 184//83
f 184//84 141//84 140//84
f 184//84 140//84 185//84
f 185//85 140//85 164//85
f 185//85 164//85 168//85
f 168//86 164//86 162//86
f 168//86 162//86 169//86
f 74//87 34//87 33//87
f 33//88 18//88 74//88
f 74//89 18//89 17//89
f 74//90 17//90 96//90
f 96//91 17//91 59//91
f 85//92 72//92 30//92
f 30//93 72//93 73//93
f 30//94 73//94 31//94
f 31//94 73//94 82//94
f 31//95 82//95 32//95
f 32//95 82//95 81//95
f 32//96 81//96 58//96
f 58//96 81//96 80//96
f 58//97 80//97 59//97
f 59//97 80//97 97//97
f 59//98 97//98 96//98
f 30//99 29//99 85//99
f 85//100 29//100 60//100
f 85//100 60//100 83//100
f 83//101 60//101 62//101
f 83//101 62//101 84//101
f 84//102 62//102 40//102
f 84//102 40//102 86//102
f 86//103 40//103 39//103
f 86//103 39//103 87//103
f 87//104 39//104 69//104
f 87//104 69//104 70//104
f 70//105 69//105 65//105
f 70//105 65//105 71//105
f 35//106 34//106 74//106
f 77//107 44//107 45//107
f 77//107 45//107 75//107
f 75//108 45//108 13//108
f 75//108 13//108 88//108
f 88//109 13//109 27//109
f 88//109 27//109 89//109
f 89//110 27//110 48//110
f 89//110 48//110 91//110
f 91//111 48//111 50//111
f 91//111 50//111 92//111
f 92//112 50//112 52//112
f 92//112 52//112 90//112
f 90//113 52//113 76//113
f 76//114 52//114 54//114
f 76//115 54//115 78//115
f 57//116 93//116 79//116
f 78//117 54//117 79//117
f 79//117 54//117 55//117
f 79//116 55//116 57//116
f 38//118 95//118 94//118
f 93//119 57//119 94//119
f 94//119 57//119 56//119
f 94//118 56//118 38//118
f 95//120 38//120 98//120
f 98//121 38//121 37//121
f 98//122 37//122 74//122
f 74//123 37//123 36//123
f 74//124 36//124 35//124
