# Blender v2.91.2 OBJ File: 'Piece3.blend'
# www.blender.org
mtllib Piece3.mtl
o Piece3
v -3.265490 3.028113 -12.089939
v -3.265490 3.028113 -15.045223
v -10.653700 3.028113 -12.089939
v -13.608984 3.028113 -15.045223
v -10.653700 3.028114 -4.701729
v -13.608984 3.028114 -4.701729
v 12.988573 3.028114 -4.701729
v 15.943857 3.028114 -4.701729
v 12.988573 3.028113 -12.089939
v 15.943857 3.028113 -15.045223
v 5.600363 3.028113 -12.089939
v 5.600363 3.028113 -15.045223
v 5.600363 3.028115 11.552334
v 5.600363 3.028116 14.507618
v 12.988573 3.028115 11.552334
v 15.943857 3.028116 14.507618
v 12.988573 3.028115 4.164124
v 15.943857 3.028115 4.164124
v -10.653700 3.028115 4.164124
v -13.608984 3.028115 4.164124
v -10.653700 3.028115 11.552334
v -13.608984 3.028116 14.507618
v -3.265490 3.028115 11.552334
v -3.265490 3.028116 14.507618
v 15.943857 -1.404811 14.507618
v 15.943857 -1.404813 -15.045223
v 15.943857 84.298424 4.164118
v 15.943857 84.298424 -4.701735
v -13.608984 -1.404813 -15.045223
v 5.600363 84.298424 -15.045230
v -3.265490 84.298424 -15.045230
v -13.608984 -1.404811 14.507618
v -13.608984 84.298424 -4.701735
v -13.608984 84.298424 4.164118
v -3.265490 84.298424 14.507612
v 5.600363 84.298424 14.507612
v 12.988573 84.298424 -4.701735
v 12.988573 91.686630 -12.089946
v 12.988573 84.298424 4.164118
v 12.988573 91.686630 11.552326
v -3.265490 84.298424 -12.089945
v -10.653700 91.686630 -12.089946
v 5.600363 84.298424 -12.089945
v -10.653700 84.298424 4.164118
v -10.653700 91.686630 11.552326
v -10.653700 84.298424 -4.701735
v 5.600363 84.298424 11.552328
v -3.265490 84.298424 11.552328
vn 0.0000 1.0000 0.0000
vn 1.0000 0.0000 0.0000
vn 0.0000 0.0000 -1.0000
vn -1.0000 0.0000 0.0000
vn 0.0000 0.0000 1.0000
vn 0.0000 -1.0000 0.0000
g Piece3_Piece3_Default
usemtl Default
s off
f 1//1 2//1 3//1
f 3//1 2//1 4//1
f 3//1 4//1 5//1
f 5//1 4//1 6//1
f 7//1 8//1 9//1
f 9//1 8//1 10//1
f 9//1 10//1 11//1
f 11//1 10//1 12//1
f 13//1 14//1 15//1
f 15//1 14//1 16//1
f 15//1 16//1 17//1
f 17//1 16//1 18//1
f 19//1 20//1 21//1
f 21//1 20//1 22//1
f 21//1 22//1 23//1
f 23//1 22//1 24//1
f 25//2 26//2 8//2
f 8//2 26//2 10//2
f 16//2 25//2 18//2
f 18//2 25//2 8//2
f 18//2 8//2 27//2
f 27//2 8//2 28//2
f 26//3 29//3 2//3
f 2//3 29//3 4//3
f 10//3 26//3 12//3
f 12//3 26//3 2//3
f 12//3 2//3 30//3
f 30//3 2//3 31//3
f 29//4 32//4 20//4
f 20//4 32//4 22//4
f 4//4 29//4 6//4
f 6//4 29//4 20//4
f 6//4 20//4 33//4
f 33//4 20//4 34//4
f 32//5 25//5 14//5
f 14//5 25//5 16//5
f 22//5 32//5 24//5
f 24//5 32//5 14//5
f 24//5 14//5 35//5
f 35//5 14//5 36//5
f 32//6 29//6 25//6
f 25//6 29//6 26//6
f 6//3 33//3 5//3
f 5//3 33//3 46//3
f 34//5 20//5 44//5
f 44//5 20//5 19//5
f 33//1 34//1 46//1
f 46//1 34//1 44//1
f 24//4 35//4 23//4
f 23//4 35//4 48//4
f 36//2 14//2 47//2
f 47//2 14//2 13//2
f 35//1 36//1 48//1
f 48//1 36//1 47//1
f 18//5 27//5 17//5
f 17//5 27//5 39//5
f 28//3 8//3 37//3
f 37//3 8//3 7//3
f 27//1 28//1 39//1
f 39//1 28//1 37//1
f 12//2 30//2 11//2
f 11//2 30//2 43//2
f 31//4 2//4 41//4
f 41//4 2//4 1//4
f 30//1 31//1 43//1
f 43//1 31//1 41//1
g Piece3_Piece3_In
usemtl In
f 7//2 9//2 37//2
f 37//2 9//2 38//2
f 37//2 38//2 39//2
f 39//2 38//2 40//2
f 39//2 40//2 17//2
f 17//2 40//2 15//2
f 1//3 3//3 41//3
f 41//3 3//3 42//3
f 41//3 42//3 43//3
f 43//3 42//3 38//3
f 43//3 38//3 11//3
f 11//3 38//3 9//3
f 19//4 21//4 44//4
f 44//4 21//4 45//4
f 44//4 45//4 46//4
f 46//4 45//4 42//4
f 46//4 42//4 5//4
f 5//4 42//4 3//4
f 13//5 15//5 47//5
f 47//5 15//5 40//5
f 47//5 40//5 48//5
f 48//5 40//5 45//5
f 48//5 45//5 23//5
f 23//5 45//5 21//5
f 42//1 45//1 38//1
f 38//1 45//1 40//1
